<svg version="1.2" xmlns="http://www.w3.org/2000/svg" viewBox="0 0 822 822" width="150" height="150">
	<title>logo-pdf</title>
	<defs>
		<clipPath clipPathUnits="userSpaceOnUse" id="cp1">
			<path d="m-163-438h1191v1684h-1191z"/>
		</clipPath>
	</defs>
	<style>
		.s0 { fill: #d45e5f;stroke: #cccccc;stroke-linecap: round;stroke-linejoin: round;stroke-width: 14.2 } 
		.s1 { fill: none;stroke: #333333;stroke-linecap: round;stroke-linejoin: round;stroke-width: 14.2 } 
		.s2 { fill: #d45e5f;stroke: #d45e5f;stroke-linecap: round;stroke-linejoin: round;stroke-width: 14.2 } 
		.s3 { fill: #d45e5f;stroke: #333333;stroke-width: 14.2 } 
	</style>
	<g id="Page 1" clip-path="url(#cp1)">
		<path id="Path 1" class="s0" d="m464.7 57.6c-11.8-0.1-23.2 1.1-35.9 3.2-15.9 2.7-31.8 6.8-46.9 12.4-14.5 5.3-28.1 12.6-41.6 20-18.5 10.1-29.8 18.1-47.7 29.2-10.3 6.4-30.1 13.1-37 23.1-3.8 5.6-5.7 13.5-3.8 20 1.8 6.7 7.3 13.1 13.8 15.4 9.6 3.4 20.2-2.2 30-4.6 16.9-4.1 33.9-11.2 49.7-18.5 8.7-4 16-8.3 24.2-13.1 3.3-1.8 8-4.4 12.4-6.8l1.1 1.1c-3 2.6-5.9 5.4-7.3 8.1-4 7.5-5.8 17.3-3.1 25.4 2.6 7.7 9.5 14.3 17 17.7 13.1 5.8 28.7 1 43.1 1.5 8.7 0.3 17.5-0.4 26.1 0.8 4.2 0.6 8.5 1.3 12.4 3.1 9.4 4.2 16.9 11.7 25.4 17.7 10.5 7.4 19.3 18.2 31.5 22.3 10.5 3.4 22.2 2.4 33.1 0.8 13.4-2.1 25.9-8.1 38.5-13.1 8.9-3.6 26-12.2 26.1-12.3h0.1c1.3 20.1 3.4 43.6 3.4 43.6 0 0 27.6 1.4 42.4 0 14.1-1.2 43.6-7.6 43.6-7.6 0 0 2-17 1.6-25.6-0.6-15.2-4.4-30.1-6.5-45.1-5.2-36.3-15.3-108.9-15.3-108.9l-67.5 5.4c0 0-1.3 17.9-2.3 34.8l-0.9 0.2c0 0-27.3-10.1-40.9-15.4-15.2-6-30.1-12.6-45.4-18.5-15.8-6.1-34.7-12.2-51.5-14.6-7.7-1.1-14.9-1.6-21.9-1.7z"/>
		<path id="Path 2" class="s1" d="m627.6 74.8l67.5-5.4c0 0 10.1 72.6 15.3 108.9 2.1 15 5.9 29.9 6.5 45.1 0.4 8.6-1.6 25.6-1.6 25.6 0 0-29.5 6.4-43.6 7.6-14.8 1.4-42.4 0-42.4 0 0 0-3.6-40.2-4.4-60.4-0.9-22.5-1.1-45-0.5-67.5 0.5-18 3.2-53.9 3.2-53.9zm-3.2 35c0 0-27.3-10.1-40.8-15.4-15.3-6-30.2-12.6-45.5-18.5-15.8-6.1-34.7-12.2-51.5-14.6-20.4-2.9-37.5-1.9-57.8 1.5-15.9 2.7-31.8 6.8-46.9 12.4-14.5 5.3-28.1 12.6-41.6 20-18.5 10.1-29.8 18.1-47.7 29.2-10.3 6.4-30.1 13.1-37 23.1-3.8 5.6-5.7 13.5-3.8 20 1.8 6.7 7.3 13.1 13.8 15.4 9.6 3.4 20.2-2.2 30-4.6 16.9-4.1 33.9-11.2 49.7-18.5 8.7-4 15.9-8.3 24.2-13 7.9-4.5 23.9-13.1 23.9-13.1 0 0 34.7-7 52.4-8.5 18.1-1.6 54.6-0.8 54.6-0.8m-107 9.3c0 0-14 8.5-17.7 15.4-4 7.5-5.8 17.3-3.1 25.4 2.6 7.7 9.5 14.3 17 17.7 13.1 5.8 28.7 1 43.1 1.5 8.7 0.3 17.5-0.4 26.1 0.8 4.2 0.6 8.5 1.3 12.4 3.1 9.4 4.2 16.9 11.7 25.4 17.7 10.5 7.4 19.3 18.2 31.5 22.3 10.5 3.4 22.2 2.4 33.1 0.8 13.4-2.1 25.9-8.1 38.5-13.1 9-3.6 26.2-12.3 26.2-12.3"/>
		<path id="Path 3" class="s2" d="m369.3 712.5c11.8 0.2 23.2-1 35.9-3.2 16-2.6 31.8-6.7 47-12.3 14.4-5.3 28-12.6 41.5-20 18.5-10.1 29.8-18.1 47.8-29.2 10.2-6.4 30.1-13.2 36.9-23.1 3.8-5.6 5.7-13.5 3.8-20.1-1.8-6.6-7.3-13-13.8-15.3-9.5-3.5-20.2 2.1-30 4.6-16.9 4.1-33.9 11.1-49.7 18.4-8.6 4.1-15.9 8.4-24.2 13.1-3.3 1.9-8 4.5-12.4 6.9l-1.1-1.2c3-2.5 5.9-5.3 7.3-8 4-7.5 5.8-17.3 3.1-25.4-2.6-7.7-9.5-14.3-16.9-17.7-13.2-5.9-28.8-1.1-43.2-1.5-8.7-0.3-17.5 0.4-26.1-0.8-4.2-0.6-8.5-1.3-12.3-3.1-9.4-4.2-17-11.7-25.4-17.7-10.6-7.4-19.4-18.3-31.6-22.3-10.5-3.5-22.2-2.4-33.1-0.8-13.4 2.1-25.9 8-38.5 13.1-8.9 3.6-26 12.2-26.1 12.3h-0.1c-1.3-20.1-3.4-43.7-3.4-43.7 0 0-27.6-1.3-42.4 0-14.1 1.3-43.6 7.7-43.6 7.7 0 0-1.9 17-1.6 25.5 0.6 15.2 4.4 30.2 6.5 45.2 5.2 36.3 15.3 108.9 15.3 108.9l67.5-5.5c0 0 1.3-17.9 2.3-34.7l1-0.2c0 0 27.2 10.1 40.8 15.4 15.2 5.9 30.1 12.5 45.4 18.5 15.8 6.1 34.8 12.2 51.6 14.6 7.6 1.1 14.8 1.6 21.8 1.6z"/>
		<path id="Path 4" class="s1" d="m206.4 697.3l-67.5 5.5c0 0-10.1-72.6-15.3-108.9-2.1-15-5.9-30-6.5-45.2-0.4-8.5 1.6-25.5 1.6-25.5 0 0 29.5-6.4 43.6-7.7 14.8-1.3 42.4 0 42.4 0 0 0 3.6 40.3 4.4 60.5 0.9 22.4 1.1 45 0.5 67.5-0.4 17.9-3.2 53.8-3.2 53.8zm3.3-34.9c0 0 27.2 10.1 40.8 15.4 15.2 5.9 30.1 12.5 45.4 18.5 15.8 6.1 34.8 12.2 51.6 14.6 20.3 2.9 37.4 1.8 57.7-1.6 16-2.6 31.8-6.7 46.9-12.3 14.5-5.3 28.1-12.6 41.6-20 18.5-10.1 29.8-18.1 47.7-29.2 10.3-6.4 30.2-13.2 37-23.1 3.8-5.6 5.7-13.5 3.8-20.1-1.8-6.6-7.3-13-13.8-15.3-9.5-3.5-20.2 2.1-30 4.6-16.9 4.1-33.9 11.1-49.7 18.4-8.7 4.1-15.9 8.4-24.2 13.1-7.9 4.5-23.9 13.1-23.9 13.1 0 0-34.7 6.9-52.3 8.5-18.2 1.6-54.7 0.8-54.7 0.8m107-9.3c0 0 14-8.5 17.7-15.4 4-7.5 5.8-17.3 3.1-25.4-2.6-7.7-9.5-14.3-16.9-17.7-13.2-5.9-28.8-1.1-43.2-1.5-8.7-0.3-17.5 0.4-26.1-0.8-4.2-0.6-8.5-1.3-12.3-3.1-9.4-4.2-17-11.8-25.5-17.7-10.5-7.4-19.3-18.3-31.5-22.3-10.5-3.5-22.2-2.4-33.1-0.8-13.4 2.1-25.9 8-38.5 13.1-8.9 3.6-26.2 12.3-26.2 12.3"/>
		<path id="Path 5" class="s3" d="m402 327.4c0 0 20.3-24.7 33.9-32.3 10-5.5 21.7-9 33.1-8.5 10.6 0.5 20.9 5.3 30 10.8 8.6 5.1 18 11 22.4 20 5.8 12 5.7 27.1 2.3 40-5.3 19.9-20.3 36.2-33.9 51.6-15.2 17.2-35 29.6-52.3 44.7-11.7 10.1-34.7 30.8-34.7 30.8 0 0-35.7-20.9-52.3-33.1-17.4-12.9-36-25.3-49.3-42.4-13.1-16.7-27.9-35.7-28.5-57-0.4-16.7 7.6-34.9 20-46.1 11.8-10.7 29.5-14.6 45.4-14.7 12.7 0 24.9 6 36.2 11.6 6.5 3.2 12.5 7.4 17.7 12.3 3.9 3.6 10 12.3 10 12.3z"/>
	</g>
</svg>